<svg width="19" height="11" viewBox="0 0 19 11" fill="none" xmlns="http://www.w3.org/2000/svg">
<path d="M17.9498 9.42857C17.9283 9.38228 17.9083 9.34388 17.8897 9.31311C17.5819 8.7588 16.9938 8.07841 16.1256 7.27176L16.1073 7.25329L16.0981 7.24423L16.0888 7.23495H16.0795C15.6854 6.85933 15.4359 6.60678 15.3314 6.47747C15.1403 6.23116 15.0974 5.98184 15.2019 5.72922C15.2757 5.53835 15.553 5.13527 16.0332 4.51942C16.2857 4.19304 16.4858 3.93146 16.6335 3.73439C17.6988 2.3181 18.1606 1.41308 18.019 1.01896L17.9639 0.926857C17.9269 0.871409 17.8315 0.820684 17.6778 0.774424C17.5236 0.72826 17.3267 0.720626 17.0865 0.751391L14.4265 0.769765C14.3834 0.754496 14.3219 0.75592 14.2417 0.774424C14.1617 0.792928 14.1216 0.802213 14.1216 0.802213L14.0753 0.825343L14.0386 0.853131C14.0078 0.871506 13.9739 0.903824 13.9369 0.95002C13.9001 0.996054 13.8694 1.05008 13.8448 1.11164C13.5552 1.85669 13.2259 2.5494 12.8564 3.18974C12.6286 3.57157 12.4193 3.90248 12.2282 4.18266C12.0374 4.46275 11.8773 4.66911 11.7481 4.80139C11.6187 4.93379 11.5019 5.03987 11.397 5.12C11.2923 5.20016 11.2124 5.23404 11.157 5.22164C11.1015 5.20925 11.0493 5.19696 10.9998 5.18467C10.9137 5.12922 10.8444 5.05381 10.7922 4.95838C10.7397 4.86295 10.7044 4.74283 10.6859 4.59813C10.6675 4.45333 10.6566 4.32878 10.6535 4.22407C10.6507 4.11948 10.652 3.97154 10.6582 3.78068C10.6646 3.58972 10.6675 3.46051 10.6675 3.39277C10.6675 3.15875 10.6721 2.90477 10.6812 2.63076C10.6905 2.35676 10.6981 2.13966 10.7044 1.97972C10.7107 1.81962 10.7136 1.65024 10.7136 1.47166C10.7136 1.29309 10.7027 1.15305 10.6812 1.0514C10.66 0.94989 10.6274 0.851352 10.5845 0.755823C10.5413 0.66039 10.4781 0.586567 10.3952 0.53416C10.312 0.481818 10.2087 0.440281 10.0858 0.409419C9.75938 0.335564 9.34378 0.295611 8.83876 0.2894C7.69354 0.277107 6.95767 0.351059 6.63133 0.511159C6.50202 0.578803 6.38501 0.671227 6.28039 0.78814C6.16953 0.923654 6.15407 0.997607 6.2341 1.00977C6.6036 1.06512 6.86519 1.19753 7.01914 1.40687L7.07462 1.51779C7.11777 1.59783 7.16086 1.73952 7.20399 1.94268C7.24705 2.14584 7.27483 2.37057 7.28706 2.61676C7.31779 3.06633 7.31779 3.45116 7.28706 3.7713C7.25623 4.09156 7.22712 4.34088 7.19933 4.51946C7.17154 4.69803 7.13 4.84273 7.07462 4.95353C7.01914 5.06436 6.98223 5.1321 6.96372 5.15669C6.94525 5.18127 6.92985 5.19677 6.91762 5.20285C6.83759 5.23352 6.75435 5.24914 6.66821 5.24914C6.58193 5.24914 6.47731 5.20599 6.35418 5.11974C6.23109 5.0335 6.10334 4.91503 5.97093 4.76415C5.83853 4.61324 5.6892 4.40235 5.52289 4.13145C5.3567 3.86055 5.18428 3.54038 5.00571 3.17095L4.85796 2.90302C4.76561 2.73066 4.63944 2.47969 4.47934 2.15033C4.31914 1.82085 4.17755 1.50214 4.05445 1.19426C4.00525 1.06496 3.93133 0.966518 3.83282 0.898778L3.7866 0.870989C3.75586 0.846403 3.70653 0.820296 3.63885 0.792475C3.57108 0.764686 3.50036 0.744759 3.42641 0.732498L0.895703 0.750873C0.637097 0.750873 0.46163 0.809459 0.369239 0.926469L0.332263 0.98182C0.313791 1.01265 0.304474 1.06189 0.304474 1.12966C0.304474 1.1974 0.322946 1.28054 0.359922 1.37898C0.729359 2.24726 1.13111 3.08464 1.56519 3.89125C1.99926 4.69787 2.37646 5.34762 2.69656 5.83992C3.01673 6.33258 3.34308 6.79754 3.6756 7.23459C4.00813 7.6718 4.22824 7.95199 4.33593 8.07508C4.44376 8.1984 4.52845 8.29059 4.59001 8.35216L4.82096 8.57379C4.96873 8.72159 5.18573 8.89861 5.47206 9.10484C5.75846 9.3112 6.07552 9.51436 6.42341 9.71464C6.77137 9.9146 7.17617 10.0778 7.63803 10.204C8.09982 10.3303 8.54929 10.381 8.9865 10.3565H10.0487C10.2641 10.3379 10.4273 10.2702 10.5382 10.1533L10.575 10.107C10.5997 10.0702 10.6228 10.0131 10.6442 9.9363C10.6658 9.85934 10.6765 9.77455 10.6765 9.68232C10.6702 9.4176 10.6904 9.17902 10.7364 8.96661C10.7825 8.75427 10.835 8.59417 10.8936 8.48634C10.9523 8.37862 11.0185 8.28771 11.0921 8.21402C11.166 8.14017 11.2186 8.09543 11.2494 8.08003C11.2801 8.06453 11.3046 8.05402 11.323 8.04771C11.4708 7.99847 11.6447 8.04616 11.845 8.19099C12.0452 8.33569 12.2329 8.51436 12.4085 8.7267C12.584 8.93924 12.7949 9.1777 13.0411 9.44242C13.2875 9.70723 13.503 9.90408 13.6876 10.0336L13.8723 10.1444C13.9956 10.2184 14.1557 10.2861 14.3528 10.3477C14.5495 10.4092 14.7219 10.4246 14.8699 10.3938L17.2342 10.357C17.4681 10.357 17.6501 10.3182 17.7791 10.2414C17.9085 10.1644 17.9853 10.0796 18.0101 9.98742C18.0348 9.89509 18.0361 9.79034 18.0148 9.67323C17.9929 9.55642 17.9713 9.47473 17.9498 9.42857Z" fill="#EEEEEE"/>
</svg>
