<svg width="26" height="26" viewBox="0 0 26 26" fill="none" xmlns="http://www.w3.org/2000/svg">
<path d="M19.4236 10.0737H13.2986C12.8203 10.0737 12.4236 9.677 12.4236 9.19867C12.4236 8.72034 12.8203 8.32367 13.2986 8.32367H19.4236C19.9019 8.32367 20.2986 8.72034 20.2986 9.19867C20.2986 9.677 19.9136 10.0737 19.4236 10.0737Z" fill="#333845"/>
<path d="M7.17299 10.9603C6.95132 10.9603 6.72965 10.8786 6.55465 10.7036L5.67965 9.82861C5.34132 9.49028 5.34132 8.93028 5.67965 8.59195C6.01799 8.25361 6.57799 8.25361 6.91632 8.59195L7.17299 8.84861L9.17965 6.84195C9.51799 6.50361 10.078 6.50361 10.4163 6.84195C10.7547 7.18028 10.7547 7.74028 10.4163 8.07861L7.79132 10.7036C7.62799 10.867 7.40632 10.9603 7.17299 10.9603Z" fill="#333845"/>
<path d="M19.4236 18.2403H13.2986C12.8203 18.2403 12.4236 17.8436 12.4236 17.3653C12.4236 16.887 12.8203 16.4903 13.2986 16.4903H19.4236C19.9019 16.4903 20.2986 16.887 20.2986 17.3653C20.2986 17.8436 19.9136 18.2403 19.4236 18.2403Z" fill="#333845"/>
<path d="M7.17299 19.127C6.95132 19.127 6.72965 19.0453 6.55465 18.8703L5.67965 17.9953C5.34132 17.657 5.34132 17.097 5.67965 16.7586C6.01799 16.4203 6.57799 16.4203 6.91632 16.7586L7.17299 17.0153L9.17965 15.0086C9.51799 14.6703 10.078 14.6703 10.4163 15.0086C10.7547 15.347 10.7547 15.907 10.4163 16.2453L7.79132 18.8703C7.62799 19.0336 7.40632 19.127 7.17299 19.127Z" fill="#333845"/>
<path d="M16.3668 25.3919H9.3668C3.0318 25.3919 0.325134 22.6852 0.325134 16.3502V9.3502C0.325134 3.0152 3.0318 0.308533 9.3668 0.308533H16.3668C22.7018 0.308533 25.4085 3.0152 25.4085 9.3502V16.3502C25.4085 22.6852 22.7018 25.3919 16.3668 25.3919ZM9.3668 2.05853C3.98847 2.05853 2.07513 3.97187 2.07513 9.3502V16.3502C2.07513 21.7285 3.98847 23.6419 9.3668 23.6419H16.3668C21.7451 23.6419 23.6585 21.7285 23.6585 16.3502V9.3502C23.6585 3.97187 21.7451 2.05853 16.3668 2.05853H9.3668Z" fill="#333845"/>
</svg>
