<svg width="23" height="17" viewBox="0 0 23 17" fill="none" xmlns="http://www.w3.org/2000/svg">
<path d="M22.2812 1.75H0.71875C0.528126 1.75 0.345309 1.67427 0.210517 1.53948C0.0757252 1.40469 0 1.22187 0 1.03125C0 0.840626 0.0757252 0.657809 0.210517 0.523017C0.345309 0.388225 0.528126 0.3125 0.71875 0.3125H22.2812C22.4719 0.3125 22.6547 0.388225 22.7895 0.523017C22.9243 0.657809 23 0.840626 23 1.03125C23 1.22187 22.9243 1.40469 22.7895 1.53948C22.6547 1.67427 22.4719 1.75 22.2812 1.75Z" fill="#333845"/>
<path d="M22.2812 8.9375H0.71875C0.528126 8.9375 0.345309 8.86178 0.210517 8.72698C0.0757252 8.59219 0 8.40937 0 8.21875C0 8.02813 0.0757252 7.84531 0.210517 7.71052C0.345309 7.57572 0.528126 7.5 0.71875 7.5H22.2812C22.4719 7.5 22.6547 7.57572 22.7895 7.71052C22.9243 7.84531 23 8.02813 23 8.21875C23 8.40937 22.9243 8.59219 22.7895 8.72698C22.6547 8.86178 22.4719 8.9375 22.2812 8.9375Z" fill="#333845"/>
<path d="M22.2812 16.125H0.71875C0.528126 16.125 0.345309 16.0493 0.210517 15.9145C0.0757252 15.7797 0 15.5969 0 15.4062C0 15.2156 0.0757252 15.0328 0.210517 14.898C0.345309 14.7632 0.528126 14.6875 0.71875 14.6875H22.2812C22.4719 14.6875 22.6547 14.7632 22.7895 14.898C22.9243 15.0328 23 15.2156 23 15.4062C23 15.5969 22.9243 15.7797 22.7895 15.9145C22.6547 16.0493 22.4719 16.125 22.2812 16.125Z" fill="#333845"/>
</svg>
